<svg width="176" height="30" viewBox="0 0 176 30" fill="none" xmlns="http://www.w3.org/2000/svg">
<rect width="15" height="15" fill="#2DB67D"/>
<rect x="15" y="15" width="15" height="15" fill="#F2F2F2"/>
<circle cx="22.5002" cy="7.5" r="4.5" fill="#E0E0E0"/>
<circle cx="7.50024" cy="22.5" r="4.5" fill="#05C0B5"/>
<path d="M52.4775 8.29492C53.8311 8.29492 54.9482 8.45964 55.8291 8.78906C56.7171 9.11849 57.376 9.61979 57.8057 10.293C58.2425 10.9661 58.4609 11.8219 58.4609 12.8604C58.4609 13.6338 58.3177 14.2926 58.0312 14.8369C57.7448 15.3812 57.3688 15.8324 56.9033 16.1904C56.4378 16.5485 55.9401 16.835 55.4102 17.0498L59.8682 24H56.957L53.165 17.7051H50.6406V24H48.0625V8.29492H52.4775ZM52.3057 10.4434H50.6406V15.5781H52.4238C53.6198 15.5781 54.4863 15.3561 55.0234 14.9121C55.5677 14.4681 55.8398 13.8128 55.8398 12.9463C55.8398 12.0368 55.5498 11.3923 54.9697 11.0127C54.3968 10.6331 53.5088 10.4434 52.3057 10.4434ZM64.3799 12.1084V24H61.8555V12.1084H64.3799ZM63.1338 7.55371C63.5205 7.55371 63.8535 7.65755 64.1328 7.86523C64.4193 8.07292 64.5625 8.43099 64.5625 8.93945C64.5625 9.44076 64.4193 9.79883 64.1328 10.0137C63.8535 10.2214 63.5205 10.3252 63.1338 10.3252C62.7327 10.3252 62.3926 10.2214 62.1133 10.0137C61.8411 9.79883 61.7051 9.44076 61.7051 8.93945C61.7051 8.43099 61.8411 8.07292 62.1133 7.86523C62.3926 7.65755 62.7327 7.55371 63.1338 7.55371ZM72.6621 11.8828C74.166 11.8828 75.3011 12.2158 76.0674 12.8818C76.8408 13.5479 77.2275 14.5863 77.2275 15.9971V24H75.4336L74.9502 22.3135H74.8643C74.5277 22.7432 74.1803 23.0977 73.8223 23.377C73.4642 23.6562 73.0488 23.8639 72.5762 24C72.1107 24.1432 71.5413 24.2148 70.8682 24.2148C70.1592 24.2148 69.5254 24.0859 68.9668 23.8281C68.4082 23.5632 67.9678 23.1621 67.6455 22.625C67.3232 22.0879 67.1621 21.4076 67.1621 20.584C67.1621 19.3594 67.6169 18.4391 68.5264 17.8232C69.443 17.2074 70.8252 16.8672 72.6729 16.8027L74.7354 16.7275V16.1045C74.7354 15.2809 74.542 14.6937 74.1553 14.3428C73.7757 13.9919 73.2386 13.8164 72.5439 13.8164C71.9495 13.8164 71.373 13.9023 70.8145 14.0742C70.2559 14.2461 69.7116 14.4574 69.1816 14.708L68.3652 12.9248C68.9453 12.6169 69.6042 12.3662 70.3418 12.1729C71.0866 11.9795 71.86 11.8828 72.6621 11.8828ZM74.7246 18.3174L73.1885 18.3711C71.9281 18.4141 71.0436 18.6289 70.5352 19.0156C70.0267 19.4023 69.7725 19.9323 69.7725 20.6055C69.7725 21.1927 69.9479 21.6224 70.2988 21.8945C70.6497 22.1595 71.1117 22.292 71.6846 22.292C72.5583 22.292 73.2816 22.0449 73.8545 21.5508C74.4346 21.0495 74.7246 20.3154 74.7246 19.3486V18.3174ZM88.7217 24H79.6875V22.4424L85.6924 14.0527H80.0527V12.1084H88.5498V13.8271L82.6631 22.0557H88.7217V24Z" fill="white"/>
<path d="M100.613 19.7246C100.613 20.6556 100.384 21.4577 99.9258 22.1309C99.4746 22.804 98.8229 23.3197 97.9707 23.6777C97.1257 24.0358 96.1159 24.2148 94.9414 24.2148C94.3685 24.2148 93.8206 24.1826 93.2979 24.1182C92.7751 24.0537 92.2809 23.9606 91.8154 23.8389C91.3571 23.71 90.9382 23.556 90.5586 23.377V20.9492C91.196 21.2285 91.9085 21.4827 92.6963 21.7119C93.484 21.9339 94.2861 22.0449 95.1025 22.0449C95.7686 22.0449 96.32 21.959 96.7568 21.7871C97.2008 21.6081 97.5303 21.3574 97.7451 21.0352C97.96 20.7057 98.0674 20.3226 98.0674 19.8857C98.0674 19.4202 97.9421 19.0264 97.6914 18.7041C97.4408 18.3818 97.0612 18.0882 96.5527 17.8232C96.0514 17.5511 95.4212 17.2611 94.6621 16.9531C94.1465 16.7454 93.6523 16.5091 93.1797 16.2441C92.7142 15.9792 92.2988 15.6676 91.9336 15.3096C91.5684 14.9515 91.2783 14.529 91.0635 14.042C90.8558 13.5479 90.752 12.9678 90.752 12.3018C90.752 11.4137 90.9632 10.6546 91.3857 10.0244C91.8154 9.39421 92.417 8.91081 93.1904 8.57422C93.971 8.23763 94.8805 8.06934 95.9189 8.06934C96.7425 8.06934 97.516 8.15527 98.2393 8.32715C98.9697 8.49902 99.6859 8.74251 100.388 9.05762L99.5713 11.1309C98.9268 10.8659 98.3001 10.6546 97.6914 10.4971C97.0898 10.3395 96.474 10.2607 95.8438 10.2607C95.2995 10.2607 94.8376 10.3431 94.458 10.5078C94.0785 10.6725 93.7884 10.9053 93.5879 11.2061C93.3945 11.4997 93.2979 11.8506 93.2979 12.2588C93.2979 12.7171 93.4089 13.1038 93.6309 13.4189C93.86 13.7269 94.2109 14.0098 94.6836 14.2676C95.1634 14.5254 95.7793 14.8118 96.5312 15.127C97.3978 15.485 98.1318 15.861 98.7334 16.2549C99.3421 16.6488 99.8076 17.1214 100.13 17.6729C100.452 18.2171 100.613 18.901 100.613 19.7246ZM105.909 7.28516V11.4854C105.909 11.9222 105.895 12.3483 105.866 12.7637C105.845 13.179 105.82 13.5013 105.791 13.7305H105.931C106.181 13.3151 106.489 12.9749 106.854 12.71C107.22 12.4378 107.628 12.2337 108.079 12.0977C108.537 11.9616 109.024 11.8936 109.54 11.8936C110.45 11.8936 111.223 12.0475 111.86 12.3555C112.498 12.6562 112.985 13.1253 113.321 13.7627C113.665 14.4001 113.837 15.2272 113.837 16.2441V24H111.312V16.7168C111.312 15.793 111.123 15.1019 110.743 14.6436C110.364 14.1781 109.776 13.9453 108.981 13.9453C108.215 13.9453 107.606 14.1064 107.155 14.4287C106.711 14.7438 106.393 15.2129 106.199 15.8359C106.006 16.4518 105.909 17.2038 105.909 18.0918V24H103.385V7.28516H105.909ZM122.033 11.8828C123.537 11.8828 124.672 12.2158 125.438 12.8818C126.212 13.5479 126.599 14.5863 126.599 15.9971V24H124.805L124.321 22.3135H124.235C123.899 22.7432 123.551 23.0977 123.193 23.377C122.835 23.6562 122.42 23.8639 121.947 24C121.482 24.1432 120.912 24.2148 120.239 24.2148C119.53 24.2148 118.896 24.0859 118.338 23.8281C117.779 23.5632 117.339 23.1621 117.017 22.625C116.694 22.0879 116.533 21.4076 116.533 20.584C116.533 19.3594 116.988 18.4391 117.897 17.8232C118.814 17.2074 120.196 16.8672 122.044 16.8027L124.106 16.7275V16.1045C124.106 15.2809 123.913 14.6937 123.526 14.3428C123.147 13.9919 122.61 13.8164 121.915 13.8164C121.321 13.8164 120.744 13.9023 120.186 14.0742C119.627 14.2461 119.083 14.4574 118.553 14.708L117.736 12.9248C118.316 12.6169 118.975 12.3662 119.713 12.1729C120.458 11.9795 121.231 11.8828 122.033 11.8828ZM124.096 18.3174L122.56 18.3711C121.299 18.4141 120.415 18.6289 119.906 19.0156C119.398 19.4023 119.144 19.9323 119.144 20.6055C119.144 21.1927 119.319 21.6224 119.67 21.8945C120.021 22.1595 120.483 22.292 121.056 22.292C121.929 22.292 122.653 22.0449 123.226 21.5508C123.806 21.0495 124.096 20.3154 124.096 19.3486V18.3174ZM133.527 29.2852C131.916 29.2852 130.681 28.9951 129.821 28.415C128.962 27.835 128.532 27.0221 128.532 25.9766C128.532 25.2461 128.761 24.6266 129.22 24.1182C129.678 23.6169 130.333 23.2695 131.186 23.0762C130.863 22.9329 130.584 22.7109 130.348 22.4102C130.118 22.1022 130.004 21.762 130.004 21.3896C130.004 20.9456 130.129 20.5661 130.38 20.251C130.631 19.9359 131.007 19.6315 131.508 19.3379C130.885 19.0729 130.383 18.6432 130.004 18.0488C129.632 17.4473 129.445 16.7419 129.445 15.9326C129.445 15.0732 129.628 14.3428 129.993 13.7412C130.358 13.1325 130.892 12.6706 131.594 12.3555C132.296 12.0332 133.144 11.8721 134.14 11.8721C134.354 11.8721 134.587 11.8864 134.838 11.915C135.096 11.9365 135.332 11.9652 135.547 12.001C135.769 12.0296 135.937 12.0618 136.052 12.0977H140.166V13.5049L138.146 13.8809C138.34 14.153 138.494 14.4645 138.608 14.8154C138.723 15.1592 138.78 15.5352 138.78 15.9434C138.78 17.1751 138.354 18.1455 137.502 18.8545C136.657 19.5563 135.49 19.9072 134 19.9072C133.642 19.8929 133.295 19.8643 132.958 19.8213C132.7 19.9788 132.503 20.1543 132.367 20.3477C132.231 20.5339 132.163 20.7451 132.163 20.9814C132.163 21.1748 132.231 21.3324 132.367 21.4541C132.503 21.5687 132.704 21.6546 132.969 21.7119C133.241 21.7692 133.57 21.7979 133.957 21.7979H136.009C137.312 21.7979 138.308 22.0736 138.995 22.625C139.683 23.1764 140.026 23.9857 140.026 25.0527C140.026 26.4062 139.468 27.4482 138.351 28.1787C137.233 28.9163 135.626 29.2852 133.527 29.2852ZM133.624 27.5127C134.505 27.5127 135.246 27.4268 135.848 27.2549C136.449 27.083 136.904 26.8359 137.212 26.5137C137.52 26.1986 137.674 25.8226 137.674 25.3857C137.674 24.999 137.577 24.7018 137.384 24.4941C137.19 24.2865 136.9 24.1432 136.514 24.0645C136.127 23.9857 135.647 23.9463 135.074 23.9463H133.205C132.74 23.9463 132.328 24.0179 131.97 24.1611C131.612 24.3115 131.332 24.5264 131.132 24.8057C130.938 25.085 130.842 25.4215 130.842 25.8154C130.842 26.3597 131.082 26.7786 131.562 27.0723C132.049 27.3659 132.736 27.5127 133.624 27.5127ZM134.118 18.2529C134.856 18.2529 135.404 18.0524 135.762 17.6514C136.12 17.2432 136.299 16.6702 136.299 15.9326C136.299 15.1305 136.113 14.529 135.74 14.1279C135.375 13.7269 134.831 13.5264 134.107 13.5264C133.398 13.5264 132.858 13.7305 132.485 14.1387C132.12 14.5469 131.938 15.152 131.938 15.9541C131.938 16.6774 132.12 17.2432 132.485 17.6514C132.858 18.0524 133.402 18.2529 134.118 18.2529ZM147.073 11.8828C148.133 11.8828 149.043 12.1012 149.802 12.5381C150.561 12.9749 151.145 13.5944 151.553 14.3965C151.961 15.1986 152.165 16.1582 152.165 17.2754V18.6289H144.227C144.255 19.7819 144.563 20.6699 145.15 21.293C145.745 21.916 146.576 22.2275 147.643 22.2275C148.402 22.2275 149.082 22.1559 149.684 22.0127C150.292 21.8623 150.919 21.6439 151.563 21.3574V23.4092C150.969 23.6885 150.364 23.8926 149.748 24.0215C149.132 24.1504 148.395 24.2148 147.535 24.2148C146.368 24.2148 145.34 23.9893 144.452 23.5381C143.571 23.0798 142.88 22.3994 142.379 21.4971C141.885 20.5947 141.638 19.474 141.638 18.1348C141.638 16.8027 141.863 15.6712 142.314 14.7402C142.766 13.8092 143.399 13.1003 144.216 12.6133C145.032 12.1263 145.985 11.8828 147.073 11.8828ZM147.073 13.7842C146.278 13.7842 145.634 14.042 145.14 14.5576C144.653 15.0732 144.366 15.8288 144.28 16.8242H149.694C149.687 16.2298 149.587 15.7035 149.394 15.2451C149.207 14.7868 148.921 14.4287 148.534 14.1709C148.155 13.9131 147.668 13.7842 147.073 13.7842ZM159.749 11.8828C160.809 11.8828 161.718 12.1012 162.478 12.5381C163.237 12.9749 163.82 13.5944 164.229 14.3965C164.637 15.1986 164.841 16.1582 164.841 17.2754V18.6289H156.902C156.931 19.7819 157.239 20.6699 157.826 21.293C158.421 21.916 159.251 22.2275 160.318 22.2275C161.077 22.2275 161.758 22.1559 162.359 22.0127C162.968 21.8623 163.595 21.6439 164.239 21.3574V23.4092C163.645 23.6885 163.04 23.8926 162.424 24.0215C161.808 24.1504 161.07 24.2148 160.211 24.2148C159.044 24.2148 158.016 23.9893 157.128 23.5381C156.247 23.0798 155.556 22.3994 155.055 21.4971C154.561 20.5947 154.313 19.474 154.313 18.1348C154.313 16.8027 154.539 15.6712 154.99 14.7402C155.441 13.8092 156.075 13.1003 156.892 12.6133C157.708 12.1263 158.66 11.8828 159.749 11.8828ZM159.749 13.7842C158.954 13.7842 158.31 14.042 157.815 14.5576C157.328 15.0732 157.042 15.8288 156.956 16.8242H162.37C162.363 16.2298 162.263 15.7035 162.069 15.2451C161.883 14.7868 161.597 14.4287 161.21 14.1709C160.83 13.9131 160.343 13.7842 159.749 13.7842ZM173.714 11.8828C173.914 11.8828 174.133 11.8936 174.369 11.915C174.605 11.9365 174.81 11.9652 174.981 12.001L174.745 14.3643C174.595 14.3213 174.409 14.2891 174.187 14.2676C173.972 14.2461 173.778 14.2354 173.606 14.2354C173.155 14.2354 172.726 14.3105 172.317 14.4609C171.909 14.6042 171.548 14.8262 171.232 15.127C170.917 15.4206 170.67 15.7894 170.491 16.2334C170.312 16.6774 170.223 17.193 170.223 17.7803V24H167.688V12.1084H169.664L170.008 14.2031H170.126C170.362 13.7806 170.656 13.3939 171.007 13.043C171.358 12.6921 171.759 12.4128 172.21 12.2051C172.668 11.9902 173.17 11.8828 173.714 11.8828Z" fill="#2DB67D"/>
</svg>
