<svg width="60" height="60" viewBox="0 0 60 60" fill="none" xmlns="http://www.w3.org/2000/svg">
<path d="M42.8598 30.3202C42.8598 27.3979 40.522 24.8653 37.5998 24.4757C35.4568 19.8001 30.7812 16.683 25.3264 16.683C24.9367 16.683 24.3523 16.683 23.9626 16.8778C22.7937 15.5141 21.2352 14.7349 19.4819 14.7349C16.17 14.7349 13.6374 17.2675 13.6374 20.5794C13.6374 21.3586 13.8322 21.9431 14.027 22.7223C12.4685 24.8653 11.6892 27.3979 11.6892 30.3202C11.6892 33.2424 12.4685 35.775 14.027 37.918C13.8322 38.6973 13.6374 39.2817 13.6374 40.061C13.6374 43.3729 16.17 45.9055 19.4819 45.9055C21.2352 45.9055 22.7937 45.1262 23.9626 43.7625C24.3523 43.7625 24.9367 43.9573 25.3264 43.9573C30.7812 43.9573 35.4568 40.6454 37.5998 36.1647C40.522 35.775 42.8598 33.2424 42.8598 30.3202ZM19.4819 18.6312C20.6508 18.6312 21.43 19.4105 21.43 20.5794C21.43 21.7483 20.6508 22.5275 19.4819 22.5275C18.313 22.5275 17.5337 21.7483 17.5337 20.5794C17.5337 19.4105 18.313 18.6312 19.4819 18.6312ZM19.4819 42.0092C18.313 42.0092 17.5337 41.2299 17.5337 40.061C17.5337 38.8921 18.313 38.1128 19.4819 38.1128C20.6508 38.1128 21.43 38.8921 21.43 40.061C21.43 41.2299 20.6508 42.0092 19.4819 42.0092ZM25.3264 40.061C25.3264 36.7491 22.7937 34.2165 19.4819 34.2165C18.5078 34.2165 17.5337 34.4113 16.7544 34.9958C15.9752 33.632 15.5855 32.0735 15.5855 30.3202C15.5855 28.5668 15.9752 27.0083 16.7544 25.6446C17.5337 26.229 18.5078 26.4238 19.4819 26.4238C22.7937 26.4238 25.3264 23.8912 25.3264 20.5794C29.0279 20.5794 31.9501 22.5275 33.7035 25.4498C32.1449 26.6187 31.1708 28.372 31.1708 30.3202C31.1708 32.2683 32.1449 34.0217 33.7035 35.1906C31.9501 38.1128 29.0279 40.061 25.3264 40.061ZM37.0153 32.2683C35.8464 32.2683 35.0672 31.4891 35.0672 30.3202C35.0672 29.1513 35.8464 28.372 37.0153 28.372C38.1842 28.372 38.9635 29.1513 38.9635 30.3202C38.9635 31.4891 38.1842 32.2683 37.0153 32.2683Z" fill="url(#paint0_linear_263_921)"/>
<path d="M25.3261 59.5423C24.9365 59.5423 24.7417 59.5423 24.352 59.3475L0.974081 45.7103C0.389633 45.3207 0 44.7363 0 43.957V16.6827C0 15.9034 0.389633 15.319 0.974081 14.9294L24.352 1.29222C24.9365 0.902592 25.7157 0.902592 26.3002 1.29222L49.6781 14.9294L47.73 18.2412L25.3261 5.38337L3.89633 17.8516V42.9829L25.3261 55.4512L46.7559 42.9829V28.3717H50.6522V43.957C50.6522 44.7363 50.2626 45.3207 49.6781 45.7103L26.3002 59.3475C25.9106 59.5423 25.7157 59.5423 25.3261 59.5423Z" fill="url(#paint1_linear_263_921)"/>
<defs>
<linearGradient id="paint0_linear_263_921" x1="27.2745" y1="14.7349" x2="27.2745" y2="45.9055" gradientUnits="userSpaceOnUse">
<stop stop-color="#15CFC4"/>
<stop offset="1" stop-color="#27BF80"/>
</linearGradient>
<linearGradient id="paint1_linear_263_921" x1="25.3261" y1="1" x2="25.3261" y2="59.5423" gradientUnits="userSpaceOnUse">
<stop stop-color="#15CFC4"/>
<stop offset="1" stop-color="#27BF80"/>
</linearGradient>
</defs>
</svg>
