<svg width="57" height="48" viewBox="0 0 57 48" fill="none" xmlns="http://www.w3.org/2000/svg">
<path d="M27.9069 24C27.9059 24.2529 27.8477 24.5023 27.7365 24.7294C27.6253 24.9566 27.4642 25.1556 27.2651 25.3116L16.1023 34.2418C15.8107 34.4789 15.4456 34.6072 15.0697 34.6046C14.7229 34.6029 14.3852 34.4935 14.1032 34.2916C13.8212 34.0897 13.6088 33.8052 13.4955 33.4774C13.3822 33.1496 13.3734 32.7947 13.4704 32.4617C13.5675 32.1288 13.7655 31.8341 14.0372 31.6185L23.5534 24L14.0372 16.3814C13.7274 16.0956 13.5369 15.7035 13.5034 15.2835C13.47 14.8634 13.5963 14.4461 13.8569 14.115C14.1176 13.7838 14.4936 13.5632 14.9098 13.497C15.326 13.4309 15.7518 13.5241 16.1023 13.7581L27.2651 22.6883C27.4642 22.8443 27.6253 23.0433 27.7365 23.2705C27.8477 23.4976 27.9059 23.747 27.9069 24ZM41.8604 31.2558H30.6976C30.2535 31.2558 29.8276 31.4322 29.5136 31.7462C29.1996 32.0602 29.0232 32.4861 29.0232 32.9302C29.0232 33.3742 29.1996 33.8001 29.5136 34.1142C29.8276 34.4282 30.2535 34.6046 30.6976 34.6046H41.8604C42.3045 34.6046 42.7304 34.4282 43.0444 34.1142C43.3584 33.8001 43.5348 33.3742 43.5348 32.9302C43.5348 32.4861 43.3584 32.0602 43.0444 31.7462C42.7304 31.4322 42.3045 31.2558 41.8604 31.2558ZM56.9301 4.0465V43.9534C56.9301 45.0266 56.5038 46.0558 55.7449 46.8147C54.9861 47.5736 53.9568 47.9999 52.8836 47.9999H4.0465C2.9733 47.9999 1.94406 47.5736 1.18519 46.8147C0.426327 46.0558 0 45.0266 0 43.9534V4.0465C0 2.9733 0.426327 1.94406 1.18519 1.18519C1.94406 0.426327 2.9733 0 4.0465 0H52.8836C53.9568 0 54.9861 0.426327 55.7449 1.18519C56.5038 1.94406 56.9301 2.9733 56.9301 4.0465ZM53.5813 4.0465C53.5813 3.86147 53.5078 3.68401 53.3769 3.55317C53.2461 3.42233 53.0687 3.34883 52.8836 3.34883H4.0465C3.86147 3.34883 3.68401 3.42233 3.55317 3.55317C3.42233 3.68401 3.34883 3.86147 3.34883 4.0465V43.9534C3.34883 44.1384 3.42233 44.3159 3.55317 44.4467C3.68401 44.5776 3.86147 44.6511 4.0465 44.6511H52.8836C53.0687 44.6511 53.2461 44.5776 53.3769 44.4467C53.5078 44.3159 53.5813 44.1384 53.5813 43.9534V4.0465Z" fill="url(#paint0_linear_263_1008)"/>
<defs>
<linearGradient id="paint0_linear_263_1008" x1="28.4651" y1="0" x2="28.4651" y2="47.9999" gradientUnits="userSpaceOnUse">
<stop stop-color="#15CFC4"/>
<stop offset="1" stop-color="#27BF80"/>
</linearGradient>
</defs>
</svg>
