<svg width="60" height="60" viewBox="0 0 60 60" fill="none" xmlns="http://www.w3.org/2000/svg">
<path d="M37.5 48.75V19.0625L23.4375 5H6.25C4.5924 5 3.00268 5.65848 1.83058 6.83058C0.65848 8.00269 0 9.5924 0 11.25V48.75C0 50.4076 0.65848 51.9973 1.83058 53.1694C3.00268 54.3415 4.5924 55 6.25 55H31.25C32.9076 55 34.4973 54.3415 35.6694 53.1694C36.8415 51.9973 37.5 50.4076 37.5 48.75ZM23.4375 14.375C23.4375 15.6182 23.9314 16.8105 24.8104 17.6896C25.6895 18.5686 26.8818 19.0625 28.125 19.0625H34.375V33.125H3.125V11.25C3.125 10.4212 3.45424 9.62634 4.04029 9.04029C4.62634 8.45424 5.4212 8.125 6.25 8.125H23.4375V14.375ZM3.125 42.5V36.25H9.375V42.5H3.125ZM3.125 45.625H9.375V51.875H6.25C5.4212 51.875 4.62634 51.5458 4.04029 50.9597C3.45424 50.3737 3.125 49.5788 3.125 48.75V45.625ZM12.5 51.875V45.625H21.875V51.875H12.5ZM25 51.875V45.625H34.375V48.75C34.375 49.5788 34.0458 50.3737 33.4597 50.9597C32.8737 51.5458 32.0788 51.875 31.25 51.875H25ZM34.375 42.5H25V36.25H34.375V42.5ZM12.5 42.5V36.25H21.875V42.5H12.5Z" fill="url(#paint0_linear_263_941)"/>
<defs>
<linearGradient id="paint0_linear_263_941" x1="18.75" y1="5" x2="18.75" y2="55" gradientUnits="userSpaceOnUse">
<stop stop-color="#15CFC4"/>
<stop offset="1" stop-color="#27BF80"/>
</linearGradient>
</defs>
</svg>
