<svg width="21" height="26" viewBox="0 0 21 26" fill="none" xmlns="http://www.w3.org/2000/svg">
<path d="M13.25 1H3.45C2.1025 1 1 2.1025 1 3.45V23.05C1 24.3975 2.1025 25.5 3.45 25.5H18.15C19.4975 25.5 20.6 24.3975 20.6 23.05V8.35L13.25 1ZM3.45 23.05V3.45H12.025V8.35H18.15V23.05H3.45Z" fill="#2DB67D" stroke="white" stroke-width="0.6"/>
<path d="M11.485 15.0295H12.1916C12.8587 15.0295 13.4992 15.285 13.972 15.741C14.4449 16.197 14.7113 16.8163 14.7113 17.4629C14.7113 18.1094 14.4449 18.7287 13.972 19.1848C13.4992 19.6407 12.8587 19.8962 12.1916 19.8962H11.485V20.574C11.485 20.7048 11.431 20.8296 11.3363 20.9209C11.2416 21.0122 11.114 21.0629 10.9817 21.0629C10.8493 21.0629 10.7217 21.0122 10.6271 20.9209C10.5323 20.8296 10.4784 20.7048 10.4784 20.574V19.8962H9.7718C9.10467 19.8962 8.46417 19.6407 7.99137 19.1848C7.51844 18.7287 7.25205 18.1094 7.25205 17.4629C7.25205 17.332 7.30599 17.2073 7.40076 17.1159C7.4954 17.0246 7.62301 16.974 7.75534 16.974C7.88767 16.974 8.01529 17.0246 8.10993 17.1159C8.20465 17.2072 8.25859 17.3319 8.25864 17.4627M11.485 15.0295L8.15864 17.4629M11.485 15.0295V12.1184H11.7881C12.1902 12.1197 12.5748 12.2743 12.8581 12.5474C13.1412 12.8205 13.3002 13.1896 13.3014 13.5741M11.485 15.0295L10.4784 18.9184V16.0073H9.97345C9.30632 16.0073 8.66581 15.7518 8.19301 15.2959C7.72009 14.8398 7.4537 14.2205 7.4537 13.574C7.4537 12.9274 7.72009 12.3081 8.19301 11.8521C8.66581 11.3962 9.30632 11.1406 9.97345 11.1406H10.4784V10.4629C10.4784 10.332 10.5323 10.2073 10.6271 10.1159C10.7217 10.0246 10.8493 9.97397 10.9817 9.97397C11.114 9.97397 11.2416 10.0246 11.3363 10.1159C11.431 10.2073 11.485 10.332 11.485 10.4629V11.1406H11.7883C12.4554 11.1406 13.0959 11.3962 13.5687 11.8521C14.0416 12.3081 14.308 12.9274 14.308 13.574C14.308 13.7048 14.2541 13.8296 14.1593 13.9209C14.0647 14.0122 13.9371 14.0629 13.8047 14.0629C13.6724 14.0629 13.5448 14.0122 13.4501 13.9209C13.3554 13.8296 13.3015 13.7049 13.3014 13.5741M8.25864 17.4627C8.25864 17.4628 8.25864 17.4628 8.25864 17.4629H8.15864M8.25864 17.4627C8.25864 17.4626 8.25864 17.4626 8.25863 17.4625L8.15864 17.4629M8.25864 17.4627C8.25992 17.8472 8.41886 18.2164 8.702 18.4894C8.98524 18.7625 9.36975 18.9171 9.7718 18.9184M8.15864 17.4629C8.15996 17.875 8.33035 18.2699 8.63259 18.5614C8.93483 18.8528 9.34437 19.0171 9.7718 19.0184V18.9184M9.7718 18.9184L9.7721 18.9184C9.772 18.9184 9.7719 18.9184 9.7718 18.9184ZM13.3014 13.5741C13.3014 13.5741 13.3014 13.574 13.3014 13.574H13.4014L13.3014 13.5743C13.3014 13.5742 13.3014 13.5742 13.3014 13.5741ZM9.97345 15.0295C9.57098 15.0295 9.1857 14.8753 8.90218 14.6019C8.61879 14.3287 8.46028 13.9588 8.46028 13.574C8.46028 13.1891 8.61879 12.8193 8.90218 12.546C9.1857 12.2726 9.57098 12.1184 9.97345 12.1184H10.4784V15.0295H9.97345ZM12.1916 18.9184H11.485V16.0073H12.1916C12.594 16.0073 12.9793 16.1615 13.2628 16.4349C13.5462 16.7082 13.7047 17.078 13.7047 17.4629C13.7047 17.8477 13.5462 18.2176 13.2628 18.4908C12.9793 18.7642 12.594 18.9184 12.1916 18.9184Z" fill="#2DB67D" stroke="#2DB67D" stroke-width="0.2"/>
</svg>
