<svg width="52" height="48" viewBox="0 0 52 48" fill="none" xmlns="http://www.w3.org/2000/svg">
<path d="M37.4399 11.52C37.4399 9.24154 36.7643 7.01428 35.4985 5.11983C34.2326 3.22538 32.4335 1.74883 30.3285 0.876911C28.2235 0.00499144 25.9072 -0.223143 23.6725 0.221358C21.4379 0.665859 19.3852 1.76303 17.7741 3.37413C16.163 4.98523 15.0658 7.03789 14.6213 9.27255C14.1768 11.5072 14.405 13.8235 15.2769 15.9285C16.1488 18.0335 17.6253 19.8327 19.5198 21.0985C21.4142 22.3643 23.6415 23.04 25.9199 23.04C28.9752 23.04 31.9054 21.8262 34.0658 19.6658C36.2262 17.5054 37.4399 14.5753 37.4399 11.52ZM25.9199 19.2C24.401 19.2 22.9161 18.7495 21.6532 17.9057C20.3902 17.0618 19.4058 15.8623 18.8246 14.459C18.2433 13.0557 18.0912 11.5115 18.3875 10.0217C18.6839 8.53192 19.4153 7.16348 20.4894 6.08941C21.5634 5.01535 22.9319 4.2839 24.4217 3.98757C25.9114 3.69123 27.4556 3.84332 28.8589 4.4246C30.2623 5.00588 31.4617 5.99024 32.3056 7.25321C33.1495 8.51618 33.5999 10.001 33.5999 11.52C33.5936 13.5549 32.7824 15.5047 31.3435 16.9436C29.9046 18.3825 27.9549 19.1936 25.9199 19.2ZM40.3199 24.96C38.0415 24.96 35.8142 25.6356 33.9198 26.9014C32.0253 28.1672 30.5488 29.9664 29.6768 32.0714C28.8049 34.1764 28.5768 36.4927 29.0213 38.7274C29.4658 40.962 30.563 43.0147 32.1741 44.6258C33.7852 46.2369 35.8378 47.334 38.0725 47.7785C40.3071 48.223 42.6234 47.9949 44.7284 47.123C46.8334 46.2511 48.6326 44.7745 49.8984 42.8801C51.1643 40.9856 51.8399 38.7584 51.8399 36.4799C51.8399 33.4246 50.6262 30.4945 48.4658 28.3341C46.3054 26.1737 43.3752 24.96 40.3199 24.96ZM40.3199 44.1599C38.801 44.1599 37.3161 43.7095 36.0531 42.8656C34.7902 42.0217 33.8058 40.8223 33.2245 39.4189C32.6433 38.0156 32.4912 36.4714 32.7875 34.9816C33.0838 33.4919 33.8153 32.1234 34.8893 31.0494C35.9634 29.9753 37.3319 29.2438 38.8216 28.9475C40.3114 28.6512 41.8556 28.8033 43.2589 29.3845C44.6623 29.9658 45.8617 30.9502 46.7056 32.2132C47.5495 33.4761 47.9999 34.961 47.9999 36.4799C47.9936 38.5148 47.1824 40.4646 45.7435 41.9035C44.3046 43.3424 42.3548 44.1536 40.3199 44.1599ZM11.52 24.96C9.24154 24.96 7.01428 25.6356 5.11983 26.9014C3.22538 28.1672 1.74883 29.9664 0.876911 32.0714C0.00499144 34.1764 -0.223143 36.4927 0.221358 38.7274C0.665859 40.962 1.76303 43.0147 3.37413 44.6258C4.98523 46.2369 7.03789 47.334 9.27254 47.7785C11.5072 48.223 13.8235 47.9949 15.9285 47.123C18.0335 46.2511 19.8327 44.7745 21.0985 42.8801C22.3643 40.9856 23.04 38.7584 23.04 36.4799C23.04 33.4246 21.8262 30.4945 19.6658 28.3341C17.5054 26.1737 14.5753 24.96 11.52 24.96ZM11.52 44.1599C10.001 44.1599 8.51618 43.7095 7.25321 42.8656C5.99024 42.0217 5.00588 40.8223 4.4246 39.4189C3.84332 38.0156 3.69123 36.4714 3.98757 34.9816C4.2839 33.4919 5.01535 32.1234 6.08941 31.0494C7.16348 29.9753 8.53192 29.2438 10.0217 28.9475C11.5115 28.6512 13.0556 28.8033 14.459 29.3845C15.8623 29.9658 17.0618 30.9502 17.9057 32.2132C18.7495 33.4761 19.2 34.961 19.2 36.4799C19.1936 38.5148 18.3825 40.4646 16.9436 41.9035C15.5046 43.3424 13.5549 44.1536 11.52 44.1599Z" fill="url(#paint0_linear_263_1018)"/>
<defs>
<linearGradient id="paint0_linear_263_1018" x1="25.9199" y1="0" x2="25.9199" y2="47.9999" gradientUnits="userSpaceOnUse">
<stop stop-color="#15CFC4"/>
<stop offset="1" stop-color="#27BF80"/>
</linearGradient>
</defs>
</svg>
