<?xml version="1.0" encoding="UTF-8" standalone="no"?>
<svg
   width="89.849998"
   height="74.400002"
   viewBox="0 0 89.849998 74.400002"
   fill="none"
   version="1.1"
   id="svg8"
   sodipodi:docname="three.svg"
   inkscape:version="1.2.2 (b0a8486541, 2022-12-01)"
   xmlns:inkscape="http://www.inkscape.org/namespaces/inkscape"
   xmlns:sodipodi="http://sodipodi.sourceforge.net/DTD/sodipodi-0.dtd"
   xmlns="http://www.w3.org/2000/svg"
   xmlns:svg="http://www.w3.org/2000/svg">
  <defs
     id="defs12" />
  <sodipodi:namedview
     id="namedview10"
     pagecolor="#ffffff"
     bordercolor="#000000"
     borderopacity="0.25"
     inkscape:showpageshadow="2"
     inkscape:pageopacity="0.0"
     inkscape:pagecheckerboard="0"
     inkscape:deskcolor="#d1d1d1"
     showgrid="false"
     inkscape:zoom="7.6568627"
     inkscape:cx="18.414853"
     inkscape:cy="37.221511"
     inkscape:window-width="1920"
     inkscape:window-height="947"
     inkscape:window-x="0"
     inkscape:window-y="27"
     inkscape:window-maximized="1"
     inkscape:current-layer="svg8" />
  <path
     id="path2"
     d="m 0,0.034375 v 9.898437 c 3.922553,0.418915 6.924216,2.520604 9,6.316407 2.333298,4.266695 3.5,11.301572 3.5,21.101562 0,9.599991 -1.149221,16.481742 -3.449219,20.648438 C 6.994376,61.72462 3.974957,63.780452 0,64.175 V 74.364453 C 7.654659,74.00578 13.72141,70.868572 18.199219,64.950391 22.999214,58.617097 25.400391,49.399988 25.400391,37.3 c 0,-12.166688 -2.416705,-21.416706 -7.25,-27.75 C 13.634686,3.560389 7.58391,0.389118 0,0.034375 Z"
     style="fill:#f2f2f2;fill-opacity:1" />
  <path
     d="m 34.75,22.7 c 0,-4.9333 1.1833,-9.0833 3.55,-12.45 2.3667,-3.4 5.5333,-5.95 9.5,-7.65 4,-1.7333 8.4333,-2.6 13.3,-2.6 5.2333,0 9.867,0.7167 13.9,2.15 4.067,1.4 7.25,3.5167 9.55,6.35 2.333,2.8333 3.5,6.35 3.5,10.55 0,3.5667 -1.083,6.75 -3.25,9.55 -2.167,2.8 -5.583,5 -10.25,6.6 2.9,0.8 5.5,2 7.8,3.6 2.3,1.5667 4.117,3.5333 5.45,5.9 1.367,2.3667 2.05,5.15 2.05,8.35 0,3.4333 -0.75,6.4833 -2.25,9.15 -1.467,2.6667 -3.533,4.9167 -6.2,6.75 -2.633,1.8 -5.717,3.1667 -9.25,4.1 -3.5333,0.9 -7.3333,1.35 -11.4,1.35 -5.4333,-0.0333 -10.1167,-0.9667 -14.05,-2.8 -3.9333,-1.8333 -7,-4.45 -9.2,-7.85 -2.1667,-3.4 -3.3,-7.4333 -3.4,-12.1 h 11.85 c 0.7,4.3 2.4,7.5 5.1,9.6 2.7333,2.0667 6.05,3.1 9.95,3.1 3.2333,0 6.0333,-0.4833 8.4,-1.45 2.367,-1 4.183,-2.3667 5.45,-4.1 1.3,-1.7333 1.95,-3.75 1.95,-6.05 0,-2.4333 -0.7,-4.5167 -2.1,-6.25 -1.367,-1.7333 -3.25,-3.0667 -5.65,-4 -2.4,-0.9333 -5.1,-1.4333 -8.1,-1.5 l -6.7,-0.2 v -9.9 l 6.2,-0.25 C 63.3167,30.55 65.8333,30 68,29 70.2,28 71.917,26.6833 73.15,25.05 74.383,23.4167 75,21.5833 75,19.55 75,17.6833 74.417,16 73.25,14.5 72.117,13 70.5,11.8333 68.4,11 66.3,10.1333 63.8167,9.7 60.95,9.7 c -2.4333,0 -4.7167,0.4333 -6.85,1.3 -2.1333,0.8667 -3.9,2.2667 -5.3,4.2 -1.3667,1.9 -2.1167,4.4 -2.25,7.5 z"
     fill="#f2f2f2"
     id="path4" />
</svg>
