<?xml version="1.0" encoding="UTF-8" standalone="no"?>
<svg
   width="86.888"
   height="74.364456"
   viewBox="0 0 86.888 74.364456"
   fill="none"
   version="1.1"
   id="svg8"
   sodipodi:docname="two.svg"
   inkscape:version="1.2.2 (b0a8486541, 2022-12-01)"
   xmlns:inkscape="http://www.inkscape.org/namespaces/inkscape"
   xmlns:sodipodi="http://sodipodi.sourceforge.net/DTD/sodipodi-0.dtd"
   xmlns="http://www.w3.org/2000/svg"
   xmlns:svg="http://www.w3.org/2000/svg">
  <defs
     id="defs12" />
  <sodipodi:namedview
     id="namedview10"
     pagecolor="#ffffff"
     bordercolor="#000000"
     borderopacity="0.25"
     inkscape:showpageshadow="2"
     inkscape:pageopacity="0.0"
     inkscape:pagecheckerboard="0"
     inkscape:deskcolor="#d1d1d1"
     showgrid="false"
     inkscape:zoom="7.6568627"
     inkscape:cx="15.411012"
     inkscape:cy="37.221511"
     inkscape:window-width="1920"
     inkscape:window-height="947"
     inkscape:window-x="0"
     inkscape:window-y="27"
     inkscape:window-maximized="1"
     inkscape:current-layer="svg8" />
  <path
     id="path2"
     d="m 0,0.034375 v 9.898437 c 3.922553,0.418915 6.924216,2.520604 9,6.316407 2.333298,4.266695 3.5,11.301572 3.5,21.101562 0,9.599991 -1.149221,16.481742 -3.449219,20.648438 C 6.994376,61.72462 3.974957,63.780452 0,64.175 V 74.364453 C 7.654659,74.00578 13.72141,70.868572 18.199219,64.950391 22.999214,58.617097 25.400391,49.399988 25.400391,37.3 c 0,-12.166688 -2.416705,-21.416706 -7.25,-27.75 C 13.634686,3.560389 7.58391,0.389118 0,0.034375 Z"
     style="fill:#f2f2f2;fill-opacity:1" />
  <path
     d="m 35.8883,73.3 v -9.85 c 0,-3.7 0.6833,-6.8833 2.05,-9.55 1.3666,-2.7 3.1833,-5.05 5.45,-7.05 2.2667,-2 4.75,-3.7667 7.45,-5.3 2.7333,-1.5667 5.4333,-3.0333 8.1,-4.4 2.7,-1.4 5.1833,-2.8333 7.45,-4.3 2.2667,-1.5 4.0837,-3.1667 5.4497,-5 1.4,-1.8333 2.1,-4.0167 2.1,-6.55 0,-3.2333 -1.15,-5.8667 -3.45,-7.9 -2.266,-2.0667 -5.3497,-3.1 -9.2497,-3.1 -4.1334,0 -7.55,1.1833 -10.25,3.55 -2.6667,2.3667 -4.25,5.7 -4.75,10 h -11.8 c 0.0666,-4.4 1.1166,-8.4 3.15,-12 2.0333,-3.6 5.05,-6.4667 9.05,-8.6 4,-2.1667 8.9833,-3.25 14.95,-3.25 5.1666,0 9.6167,0.9 13.3497,2.7 3.767,1.7667 6.667,4.25 8.7,7.45 2.067,3.1667 3.1,6.8667 3.1,11.1 0,3.7 -0.683,6.8667 -2.05,9.5 -1.333,2.6333 -3.116,4.9167 -5.35,6.85 -2.2,1.9 -4.633,3.5833 -7.3,5.05 -2.633,1.4667 -5.2831,2.85 -7.9497,4.15 -2.6334,1.2667 -5.0667,2.6 -7.3,4 -2.2,1.3667 -3.9833,2.9333 -5.35,4.7 -1.3334,1.7667 -2,3.8833 -2,6.35 V 62.9 H 86.888 v 10.4 z"
     fill="#f2f2f2"
     id="path4" />
</svg>
