<svg width="60" height="60" viewBox="0 0 60 60" fill="none" xmlns="http://www.w3.org/2000/svg">
<path d="M12.8319 54.1221C12.8319 54.1221 9.62378 54.1221 9.62378 50.914C9.62378 47.7059 12.8319 38.0815 25.6644 38.0815C38.4969 38.0815 41.705 47.7059 41.705 50.914C41.705 54.1221 38.4969 54.1221 38.4969 54.1221H12.8319ZM25.6644 35.0338C27.7915 35.0338 29.8315 34.1888 31.3356 32.6847C32.8397 31.1806 33.6847 29.1406 33.6847 27.0135C33.6847 24.8864 32.8397 22.8464 31.3356 21.3423C29.8315 19.8382 27.7915 18.9932 25.6644 18.9932C23.5373 18.9932 21.4973 19.8382 19.9932 21.3423C18.4891 22.8464 17.6441 24.8864 17.6441 27.0135C17.6441 29.1406 18.4891 31.1806 19.9932 32.6847C21.4973 34.1888 23.5373 35.0338 25.6644 35.0338V35.0338Z" fill="url(#paint0_linear_263_931)"/>
<path d="M6.41625 6C4.71456 6 3.08256 6.676 1.87928 7.87928C0.675996 9.08256 0 10.7146 0 12.4163L0 42.8934C0 44.1697 0.506997 45.3937 1.40946 46.2962C2.31192 47.1986 3.53592 47.7056 4.81219 47.7056H6.9071C7.57789 45.3481 8.74377 43.1607 10.327 41.2894H3.20813V12.4163C3.20813 11.5654 3.54612 10.7494 4.14776 10.1478C4.7494 9.54612 5.5654 9.20813 6.41625 9.20813H44.9138C45.7646 9.20813 46.5806 9.54612 47.1822 10.1478C47.7839 10.7494 48.1219 11.5654 48.1219 12.4163V41.2894H41.0031C42.7804 43.3875 43.8583 45.6941 44.4229 47.7056H46.5178C47.7941 47.7056 49.0181 47.1986 49.9206 46.2962C50.823 45.3937 51.33 44.1697 51.33 42.8934V12.4163C51.33 10.7146 50.654 9.08256 49.4507 7.87928C48.2475 6.676 46.6155 6 44.9138 6H6.41625Z" fill="url(#paint1_linear_263_931)"/>
<defs>
<linearGradient id="paint0_linear_263_931" x1="25.6644" y1="18.9932" x2="25.6644" y2="54.1221" gradientUnits="userSpaceOnUse">
<stop stop-color="#15CFC4"/>
<stop offset="1" stop-color="#27BF80"/>
</linearGradient>
<linearGradient id="paint1_linear_263_931" x1="25.665" y1="6" x2="25.665" y2="47.7056" gradientUnits="userSpaceOnUse">
<stop stop-color="#15CFC4"/>
<stop offset="1" stop-color="#27BF80"/>
</linearGradient>
</defs>
</svg>
