<svg width="17" height="16" viewBox="0 0 17 16" fill="none" xmlns="http://www.w3.org/2000/svg">
<path d="M11.7406 16V9.808H13.8143L14.1246 7.40089H11.7406V5.86489C11.7406 5.168 11.9343 4.69244 12.9334 4.69244H14.2081V2.53956C13.591 2.47408 12.9709 2.44233 12.3503 2.44444C10.513 2.44444 9.25522 3.56622 9.25522 5.62667V7.40089H7.177V9.808H9.25522V16H1.60544C1.36969 16 1.1436 15.9064 0.976902 15.7397C0.810203 15.573 0.716553 15.3469 0.716553 15.1111V0.888889C0.716553 0.653141 0.810203 0.427048 0.976902 0.260349C1.1436 0.0936505 1.36969 0 1.60544 0H15.8277C16.0634 0 16.2895 0.0936505 16.4562 0.260349C16.6229 0.427048 16.7166 0.653141 16.7166 0.888889V15.1111C16.7166 15.3469 16.6229 15.573 16.4562 15.7397C16.2895 15.9064 16.0634 16 15.8277 16H11.7406Z" fill="#BDBDBD"/>
</svg>
