<svg width="17" height="16" viewBox="0 0 17 16" fill="none" xmlns="http://www.w3.org/2000/svg">
<path d="M14.9388 0C15.4103 0 15.8625 0.187301 16.1959 0.520699C16.5293 0.854097 16.7166 1.30628 16.7166 1.77778V14.2222C16.7166 14.6937 16.5293 15.1459 16.1959 15.4793C15.8625 15.8127 15.4103 16 14.9388 16H2.49433C2.02283 16 1.57065 15.8127 1.23725 15.4793C0.903854 15.1459 0.716553 14.6937 0.716553 14.2222V1.77778C0.716553 1.30628 0.903854 0.854097 1.23725 0.520699C1.57065 0.187301 2.02283 0 2.49433 0H14.9388ZM14.4943 13.7778V9.06667C14.4943 8.29813 14.189 7.56107 13.6456 7.01763C13.1022 6.47419 12.3651 6.16889 11.5966 6.16889C10.841 6.16889 9.961 6.63111 9.53433 7.32444V6.33778H7.05433V13.7778H9.53433V9.39556C9.53433 8.71111 10.0854 8.15111 10.7699 8.15111C11.0999 8.15111 11.4165 8.28222 11.6498 8.5156C11.8832 8.74898 12.0143 9.06551 12.0143 9.39556V13.7778H14.4943ZM4.16544 4.94222C4.5615 4.94222 4.94133 4.78489 5.22139 4.50484C5.50144 4.22478 5.65878 3.84495 5.65878 3.44889C5.65878 2.62222 4.99211 1.94667 4.16544 1.94667C3.76703 1.94667 3.38493 2.10494 3.10321 2.38666C2.82149 2.66838 2.66322 3.05047 2.66322 3.44889C2.66322 4.27556 3.33878 4.94222 4.16544 4.94222ZM5.401 13.7778V6.33778H2.93878V13.7778H5.401Z" fill="#BDBDBD"/>
</svg>
