<svg width="24" height="16" viewBox="0 0 24 16" fill="none" xmlns="http://www.w3.org/2000/svg">
<path d="M18.1693 9.08886C17.1331 9.08886 16.1618 8.64974 15.2788 7.93512L15.4932 6.92337L15.5008 6.88387C15.6954 5.80912 16.2991 4.00658 18.1702 4.00658C18.8442 4.00708 19.4903 4.27502 19.9669 4.75155C20.4434 5.22809 20.7114 5.87427 20.7118 6.54819C20.7106 7.22196 20.4423 7.86775 19.9657 8.344C19.4891 8.82026 18.8431 9.08811 18.1693 9.08886ZM18.1693 1.43489C15.7819 1.43489 13.9286 2.98543 13.1764 5.5402C12.0292 3.8157 11.1566 1.74518 10.6498 0H8.07715V6.68735C8.07641 7.32238 7.82388 7.9312 7.37493 8.38033C6.92598 8.82945 6.31726 9.08222 5.68223 9.08322C5.04745 9.08197 4.43907 8.82906 3.99047 8.37994C3.54188 7.93082 3.28969 7.32214 3.28919 6.68735V0H0.716553V6.68735C0.716553 9.42736 2.94504 11.6737 5.68223 11.6737C8.4213 11.6737 10.6498 9.42736 10.6498 6.68735V5.56841C11.1472 6.60931 11.7612 7.66432 12.5059 8.59709L10.9328 16H13.5628L14.7034 10.6309C15.7029 11.2694 16.852 11.6737 18.1693 11.6737C20.9902 11.6737 23.2835 9.36812 23.2835 6.54913C23.2835 3.72826 20.9902 1.43489 18.1693 1.43489Z" fill="#BDBDBD"/>
</svg>
